<svg xmlns="http://www.w3.org/2000/svg" viewBox="0 0 475.71 473.59"><defs><style>.cls-1{fill:#ffe2bb;stroke-width:12.34px;}.cls-1,.cls-2,.cls-3,.cls-4{stroke:#000;stroke-miterlimit:10;}.cls-2{fill:#c60000;stroke-width:8.23px;}.cls-3{stroke-width:3.18px;}.cls-4{fill:#209985;stroke-width:3.98px;}</style></defs><g id="Capa_2" data-name="Capa 2"><g id="Capa_3" data-name="Capa 3"><g id="Capa_5" data-name="Capa 5"><circle class="cls-1" cx="234.69" cy="234.69" r="228.52"/><circle class="cls-2" cx="234.69" cy="234.69" r="109.64"/></g></g><g id="Capa_8" data-name="Capa 8"><path d="M55.94,222.34c.33,0,.47.2.45.56,0,.6-.31,3-.81,7.21q6.08.52,8.49.68,2.84.17,8.55.3t8.56.3c.3,0,.49.1.56.25a3.28,3.28,0,0,1,.08.68,35.56,35.56,0,0,1-.07,4.25,33.66,33.66,0,0,1-.46,4.34.72.72,0,0,1-.79.63c-1.89-.12-4.73-.38-8.5-.77s-6.61-.65-8.5-.77c-1.26-.08-4-.19-8.39-.33q.18,4.85,0,7.71c0,.25-.11.38-.27.37A17.13,17.13,0,0,1,53,247.3c-1.11-.33-1.78-.52-2-.56l-2.25-.31q-1.78-.28-1.77-.69s0-.15.05-.34a97.47,97.47,0,0,0,1.22-11.49c.09-1.44.1-4.12,0-8,0-2.09,0-3.15,0-3.16a1.39,1.39,0,0,1,.09-.55c.05-.05.21-.07.48-.07.43,0,1,.08,1.8.16s1.45.14,1.8.16a13,13,0,0,0,1.78-.05A14,14,0,0,1,55.94,222.34Z"/><path d="M88.68,194.67c.1,0,.15.2.12.53a41.17,41.17,0,0,1-.89,4.51,42.61,42.61,0,0,1-1.11,4.15,2.68,2.68,0,0,1-.25.56,1.07,1.07,0,0,1-.55.22l-3,.41c-1.71.24-4.24.67-7.59,1.26-.68.14-1.17.71-1.46,1.72q.21-.71-.51,2.43-.09.34,1.11.63c1.07.24,2.68.51,4.84.8s3.77.57,4.83.81c.27.06.41.17.42.32s-.07.45-.1.67c-.15.94-.45,2.39-.91,4.34a30.64,30.64,0,0,1-1.07,4,.74.74,0,0,1-.89.51Q79.13,222,74,220.5c-3.43-1-6-1.65-7.76-2.05q-9.93-2.3-15.6-3.13l-.34-.06c-.27,0-.39-.33-.37-.86s.49-2.94,1.38-7.24q.91-4.36,1.51-6.95A15,15,0,0,1,57.22,192,9.33,9.33,0,0,1,66,190a13.13,13.13,0,0,1,5.24,2.25,11.46,11.46,0,0,1,3.13,4.56c.17.42.36.65.58.7l6.55-1.5Q88.07,194.53,88.68,194.67Zm-23.35,5q-2.86-.66-4.4,1A9.63,9.63,0,0,0,59,205c-.35,1.49-.3,2.33.13,2.53a41.86,41.86,0,0,0,4.57,1.21l1.6.34,1.58.34c.08,0,.22-.21.41-.7a20.78,20.78,0,0,0,.91-3Q69.41,200.62,65.33,199.67Z"/><path d="M101.65,164.27c.26.11.37.38.31.79a28.65,28.65,0,0,1-1.64,4.18,29.48,29.48,0,0,1-2,4,1.29,1.29,0,0,1-1.41.5c-2.33-.43-3.64-.54-3.91-.33a51.93,51.93,0,0,0-2.77,5.84,19,19,0,0,0-1.57,4.07,6.63,6.63,0,0,0,2,1.89q1.65,1.23,1.53,1.89a38.83,38.83,0,0,1-2,5.1q-1.49,3.38-2.13,3.09T76.15,184.05q-12.23-11.87-13.47-13-.72-.63-.57-1c.18-.39.49-1,.93-1.79s.75-1.4.93-1.81.41-1,.7-1.79.52-1.38.69-1.76.48-.43,1.07-.45q2.79-.06,18.66.73T101.65,164.27Zm-27,6.73c.51.59,1.68,1.74,3.52,3.43a24.62,24.62,0,0,0,3.5,3c.27.12.61-.25,1-1.12.23-.44.58-1.19,1-2.23s.55-1.56.36-1.77a1,1,0,0,0-.29-.18,23.54,23.54,0,0,0-4.46-.76A33,33,0,0,0,74.65,171Z"/><path d="M94.56,118.33c1.49,1.07,3.69,2.73,6.58,5s5.1,3.93,6.6,5l12.92,9.24a.6.6,0,0,1,.13,1c-.23.31-.55.79-1,1.45s-.75,1.13-1,1.45-.63.83-1.17,1.47-.93,1.13-1.17,1.47-.59.36-1.25.38q-2.91.06-13,.32-2.79.06-8.31.28a1,1,0,0,0-.45.12.68.68,0,0,0,.32.47c1.52,1.08,3.82,2.67,6.91,4.75s5.4,3.67,6.92,4.75c.45.33.56.67.3,1l-4.85,6.79a.63.63,0,0,1-1,.13c-1.41-1-3.5-2.6-6.25-4.78s-4.84-3.77-6.26-4.79-3.79-2.62-6.88-4.64-5.36-3.55-6.85-4.62c-.29-.21-.25-.56.11-1.07.54-.76,1.16-1.73,1.85-2.92.16-.28.45-.86.85-1.73a10.86,10.86,0,0,1,.93-1.67c.12-.16.51-.24,1.19-.25L96,136.75c1.37,0,3.39-.05,6.08-.13.64,0,1-.17,1.21-.41s-.33-.61-1.35-1.34q-2.06-1.49-6.36-4.21c-2.86-1.82-5-3.23-6.37-4.22-.48-.35-.63-.66-.43-.93.56-.79,1.37-2,2.44-3.62s1.88-2.83,2.44-3.62Q94,117.9,94.56,118.33Z"/><path d="M127.77,116.12a10.65,10.65,0,0,1,3,8.84,17.7,17.7,0,0,1-3.43,9l-.21.24c-.26.26-1.64,0-4.13-.66s-3.92-1.22-4.27-1.57c-.13-.12-.12-.29,0-.49a26.92,26.92,0,0,0,2.32-4.23,4,4,0,0,0-.86-4.4,5.69,5.69,0,0,0-3.63-1.31c-2.89-.2-4.48-.33-4.76-.38a9.83,9.83,0,0,1-5.1-2.74,8.74,8.74,0,0,1-2.31-8.06,18.3,18.3,0,0,1,3.55-8l.28-.31c.17-.17.44-.17.82,0a66.08,66.08,0,0,0,6.56,2.43.72.72,0,0,1,.22.12.38.38,0,0,1,0,.6,6.33,6.33,0,0,1-.52.41,4.61,4.61,0,0,0-.54.44,5.66,5.66,0,0,0-1.58,2.71,2.84,2.84,0,0,0,.7,2.92,6.31,6.31,0,0,0,3.78,1.32l5.14.59A9.67,9.67,0,0,1,127.77,116.12Z"/><path d="M148.24,87.85a14.13,14.13,0,0,1,3.15,9.42,11.25,11.25,0,0,1-5,8.45c-.52.38-1.32.93-2.4,1.64s-1.88,1.26-2.4,1.64-.66.86-.3,1.33,1.15,1.44,2.13,2.53,1.7,1.93,2.13,2.51a.46.46,0,0,1-.08.74q-1.18.89-3.6,2.56t-3.6,2.55a.62.62,0,0,1-1-.15q-1.59-2.14-4.7-6.51T127.89,108q-4.5-6.09-10-12.41l-.22-.25c-.21-.23-.12-.52.25-.88q1.36-1.31,6.53-5.12,3-2.25,5.89-4.23a13.16,13.16,0,0,1,9.54-2.59A12.37,12.37,0,0,1,148.24,87.85Zm-7.51,6q-3.33-4.53-7.73-1.27c-2.07,1.53-3.07,2.45-3,2.75a37.39,37.39,0,0,0,3.17,4.58c.3.4.75,1,1.36,1.74s1.06,1.34,1.36,1.74,1.45-.47,3.77-2.19Q143.88,98.13,140.73,93.88Z"/><path d="M185.28,74.2a17.67,17.67,0,0,1,1,13.46A17.38,17.38,0,0,1,163.83,98.1a17.56,17.56,0,0,1-9.68-9.34,17.69,17.69,0,0,1-1-13.46,17.21,17.21,0,0,1,22.38-10.46A17.69,17.69,0,0,1,185.28,74.2ZM177,78a9.07,9.07,0,0,0-4.59-4.64,7.4,7.4,0,0,0-6.43.08,7.3,7.3,0,0,0-4.06,4.93A9.56,9.56,0,0,0,167,89.55a7.76,7.76,0,0,0,10.53-5.08A9,9,0,0,0,177,78Z"/><path d="M222.32,82.11c0,.11-.11.22-.41.35a40.72,40.72,0,0,1-4.44,1.23c-2.05.5-3.45.79-4.2.88a2.77,2.77,0,0,1-.62,0c-.1,0-.25-.15-.44-.39-.38-.55-1-1.37-1.69-2.46-1-1.41-2.51-3.49-4.55-6.21a2.11,2.11,0,0,0-2.18-.54c.47-.08-.33.13-2.41.64-.23.06-.25.48,0,1.28.25,1.06.74,2.62,1.45,4.68s1.19,3.62,1.45,4.68c.07.27,0,.44-.1.52l-.64.21c-.91.29-2.33.67-4.29,1.15a33.07,33.07,0,0,1-4.06.84c-.47,0-.76-.17-.85-.56q-.63-2.58-1.66-7.84T191,72.74q-2.41-9.91-4.22-15.35l-.1-.32q-.12-.39.6-.72c.49-.22,2.85-.89,7.09-2,2.87-.77,5.17-1.36,6.88-1.78a15,15,0,0,1,9.3.29,9.31,9.31,0,0,1,5.74,6.91,13.06,13.06,0,0,1,.34,5.7A11.38,11.38,0,0,1,214,70.28c-.3.34-.42.62-.37.83t4.29,5.19Q222.18,81.49,222.32,82.11Zm-15-18.61c-.47-1.9-1.41-3.07-2.84-3.5a9.77,9.77,0,0,0-4.75.27c-1.48.36-2.22.78-2.2,1.25a41.92,41.92,0,0,0,1,4.63c.09.36.22.89.41,1.59s.32,1.22.41,1.56c0,.08.29.09.81,0a21.5,21.5,0,0,0,3-.52Q208.35,67.59,207.36,63.5Z"/><path d="M245.28,54.38c0,.32-.14.5-.49.52q-.91.08-7.26.18.3,6.09.48,8.49c.14,1.9.43,4.73.86,8.52s.72,6.63.86,8.52c0,.3,0,.5-.17.59a2.73,2.73,0,0,1-.66.17,47.64,47.64,0,0,1-8.59.64.71.71,0,0,1-.72-.7q-.21-2.84-.39-8.53t-.39-8.52c-.1-1.25-.37-4-.82-8.35q-4.77.83-7.63,1c-.26,0-.39-.05-.4-.21a13,13,0,0,1,.2-1.87c.17-1.14.27-1.84.28-2.08,0-.76,0-1.51,0-2.27,0-1.21.17-1.83.44-1.85h.34a95.33,95.33,0,0,0,11.55-.35q2.17-.15,7.95-1l3.13-.48a1.54,1.54,0,0,1,.56,0c.05,0,.09.19.13.46,0,.44.06,1,.09,1.81s.06,1.45.08,1.81a15.08,15.08,0,0,0,.29,1.75A13.1,13.1,0,0,1,245.28,54.38Z"/><path d="M292.26,399.35a31.05,31.05,0,0,1,.38,3.81,14.45,14.45,0,0,1,0,3.67.91.91,0,0,1-.69.61,5.24,5.24,0,0,1-.72.08q-1.77.12-10.1,1.86c-1.21.26-3,.62-5.41,1.11l-5.38,1.1c-.52.11-.83-.07-.92-.52-.37-1.77-.83-4.43-1.37-8s-1-6.24-1.36-8-1.17-5.11-2.38-10q-.46-1.87-1.44-5.59l-.09-.32c-.11-.36.05-.58.48-.67,1.16-.24,2.92-.58,5.27-1s4.1-.76,5.27-1,2.87-.63,5.17-1.17,4-.94,5.17-1.18c.82-.17,1.35,0,1.61.62.15.35.5,1.42,1,3.22s.86,2.89.94,3.28a.44.44,0,0,1-.36.6l-.5.08q-6.39.8-11.39,1.83c-.84.18-1.31.48-1.41.91a7.74,7.74,0,0,0,.26,1.85,3.34,3.34,0,0,0,.92,2,2.06,2.06,0,0,0,1.62.13l.92-.23c.45-.12.82-.21,1.12-.27,2-.41,4-.89,6-1.42l1.28-.39a9.69,9.69,0,0,1,1.25-.36.5.5,0,0,1,.68.42,34.06,34.06,0,0,0,.33,3.7q.21,1.94.6,3.81c.07.32-.13.52-.59.62l-2.17.21q-1.38.13-6.16,1.14l-2.5.52c-.65.13-1,.37-1,.71,0,.08.1.57.28,1.47a7.07,7.07,0,0,0,.72,2.26c.4.54,1.48.69,3.24.43l3.45-.72c.83-.17,2.06-.51,3.67-1s2.83-.82,3.65-1Q292.08,398.49,292.26,399.35Z"/><path d="M324.21,390.83a9.3,9.3,0,0,1,.91,2.66q0,.58-1.29,1.14L323,395l-1.13.46c-.3.13-.76.31-1.37.54s-1.06.41-1.36.54-1.91-.85-5-2.86-4.72-3-4.8-3a43.72,43.72,0,0,0-1.24,5.84q-.91,5.06-1.3,5.38a10.39,10.39,0,0,1-1.62.8q-4.53,2-4.73,1.51c-.13-.31-.34-.75-.63-1.31s-.49-1-.61-1.25a9.06,9.06,0,0,1-1.07-3.38s.52-2.16,1.54-6.42q1.26-5.17,1-5.72c-.16-.37-1.78-1.41-4.84-3.11-1.93-1-3.85-2.08-5.76-3.15a2,2,0,0,1-.66-.84q-.22-.45-.54-1.26c-.24-.65-.37-1-.4-1.09-.13-.3-.35-.74-.67-1.34s-.55-1-.67-1.34.07-.53.59-.75c.34-.15.85-.35,1.53-.59s1.19-.43,1.51-.58.72-.33,1.29-.61,1-.48,1.26-.6,1.93.87,5.08,2.91a51.87,51.87,0,0,0,4.87,3,36.39,36.39,0,0,0,1.29-5.92q.9-5.25,1.3-5.43l5.26-2.28c.51-.23.83-.21.94,0l2.33,5.37q.24.57-1.24,6.5a46.2,46.2,0,0,0-1.37,6.19c.11.26,1.74,1.27,4.9,3.06l5.81,3.28A10.27,10.27,0,0,1,324.21,390.83Z"/><path d="M344.06,355.67a14.08,14.08,0,0,1,3.06,9.44,11.26,11.26,0,0,1-5.07,8.41c-.52.38-1.33.91-2.42,1.61s-1.89,1.24-2.41,1.62-.67.85-.32,1.33,1.14,1.45,2.11,2.55,1.68,1.94,2.1,2.53a.46.46,0,0,1-.08.74c-.8.58-2,1.42-3.62,2.52s-2.83,1.95-3.63,2.52a.61.61,0,0,1-1-.16q-1.57-2.16-4.65-6.56c-2.05-2.93-3.6-5.11-4.65-6.56q-4.44-6.12-9.85-12.5l-.22-.26c-.21-.23-.12-.52.26-.87.92-.87,3.11-2.55,6.57-5.06,2.05-1.48,4-2.87,5.94-4.18a13.19,13.19,0,0,1,9.56-2.49A12.37,12.37,0,0,1,344.06,355.67Zm-7.56,5.95q-3.3-4.55-7.73-1.34c-2.08,1.51-3.09,2.42-3,2.73a39,39,0,0,0,3.12,4.6c.3.41.74,1,1.35,1.76s1,1.34,1.34,1.75c.19.26,1.45-.46,3.8-2.16Q339.59,365.9,336.5,361.62Z"/><path d="M381.09,345.39c.08.07,0,.25-.14.52a41,41,0,0,1-2.94,3.54,39.27,39.27,0,0,1-3,3.12,2.68,2.68,0,0,1-.49.37,1,1,0,0,1-.58-.07l-2.8-1.06c-1.62-.6-4-1.43-7.27-2.51a2.12,2.12,0,0,0-2.1.81c.34-.34-.2.29-1.61,1.89-.16.18.06.54.68,1.08.82.73,2.1,1.73,3.86,3s3,2.3,3.86,3c.21.18.28.34.22.48l-.41.54q-.87,1.13-2.87,3.38a31,31,0,0,1-2.86,3,.72.72,0,0,1-1,0c-1.33-1.17-3.27-3-5.82-5.5s-4.51-4.33-5.84-5.51q-7.63-6.76-12.22-10.21l-.26-.2c-.22-.17-.19-.48.08-.94s1.83-2.35,4.67-5.7c1.93-2.27,3.47-4.06,4.64-5.39a15.06,15.06,0,0,1,7.81-5.06,9.3,9.3,0,0,1,8.65,2.41,13.19,13.19,0,0,1,3.53,4.48,11.43,11.43,0,0,1,.57,5.5q-.08.68.18.9l6.47,1.81C378.46,344.37,380.78,345.11,381.09,345.39Zm-22.9-6.76c-1.46-1.3-2.91-1.72-4.32-1.26a9.59,9.59,0,0,0-3.75,2.92c-1,1.15-1.38,1.91-1.1,2.29a42.14,42.14,0,0,0,3.44,3.24c.28.25.7.6,1.25,1.07l1.22,1.05c.06.06.29-.08.69-.41a20.48,20.48,0,0,0,2.21-2.17Q361.34,341.42,358.19,338.63Z"/><path d="M391,314.32a34,34,0,0,1,3.1,2.25,14.18,14.18,0,0,1,2.73,2.46.88.88,0,0,1,0,.91,5,5,0,0,1-.42.6q-1.08,1.4-5.31,8.79c-.61,1.07-1.54,2.66-2.76,4.77s-2.15,3.7-2.75,4.76c-.27.46-.6.58-1,.35-1.56-.9-3.85-2.33-6.89-4.3s-5.32-3.39-6.89-4.29-4.6-2.52-9-4.84l-5.13-2.63-.31-.15c-.33-.15-.39-.42-.18-.79.59-1,1.51-2.57,2.75-4.61S361,314,361.61,313s1.43-2.56,2.55-4.65,2-3.63,2.55-4.65c.42-.72.93-1,1.54-.78.36.11,1.39.56,3.1,1.34s2.74,1.28,3.09,1.48a.44.44,0,0,1,.2.67l-.28.42q-3.64,5.31-6.18,9.74c-.43.74-.51,1.29-.26,1.66a8.12,8.12,0,0,0,1.55,1,3.46,3.46,0,0,0,2.13.66q.6-.14,1.17-1.14c.08-.14.23-.41.44-.83s.39-.76.54-1q1.51-2.64,2.91-5.42l.55-1.21a12.23,12.23,0,0,1,.57-1.18.5.5,0,0,1,.76-.23,34.55,34.55,0,0,0,3,2.21,38.2,38.2,0,0,0,3.25,2.09c.28.16.3.44.07.84l-1.29,1.77q-.8,1.11-3.23,5.36l-1.27,2.22c-.33.57-.38,1-.16,1.24.06.06.49.31,1.28.77a7.12,7.12,0,0,0,2.17,1c.67.07,1.49-.64,2.48-2.14,0,0,.56-1,1.75-3.05.42-.74,1-1.88,1.68-3.41s1.26-2.66,1.68-3.39C390.12,314.05,390.45,314,391,314.32Z"/><path d="M395.23,292.42a10.65,10.65,0,0,1,6.45,6.76,17.53,17.53,0,0,1,.66,9.61c0,.13-.06.23-.08.31-.13.34-1.47.72-4,1.14s-4.07.53-4.54.36c-.16-.06-.23-.21-.19-.45a25.76,25.76,0,0,0,.33-4.81,4,4,0,0,0-2.62-3.64,5.71,5.71,0,0,0-3.85.34c-2.7,1-4.2,1.57-4.48,1.64a9.77,9.77,0,0,1-5.78-.35,8.71,8.71,0,0,1-5.47-6.35,18.23,18.23,0,0,1-.13-8.75l.12-.39c.08-.23.33-.34.74-.34,1.25,0,3.57-.17,7-.55a.64.64,0,0,1,.25,0,.38.38,0,0,1,.24.55,5.86,5.86,0,0,1-.29.59,4.36,4.36,0,0,0-.31.63,5.7,5.7,0,0,0-.3,3.13,2.83,2.83,0,0,0,1.86,2.35,6.32,6.32,0,0,0,4-.39l4.9-1.61A9.74,9.74,0,0,1,395.23,292.42Z"/><path d="M400.13,271a10.66,10.66,0,0,1,7.36,5.77,17.63,17.63,0,0,1,2,9.43,2,2,0,0,1,0,.31c-.07.36-1.35.93-3.82,1.7s-3.95,1.11-4.44,1c-.17,0-.26-.18-.25-.43a25.26,25.26,0,0,0-.37-4.81,4,4,0,0,0-3.11-3.22,5.74,5.74,0,0,0-3.76.88c-2.53,1.4-3.93,2.16-4.2,2.26a9.77,9.77,0,0,1-5.76.48,8.72,8.72,0,0,1-6.33-5.5,18.32,18.32,0,0,1-1.37-8.65c0-.17,0-.31.06-.4q.08-.36.69-.45a68.25,68.25,0,0,0,6.83-1.53.45.45,0,0,1,.25,0c.27.06.37.22.31.51a6.42,6.42,0,0,1-.21.62,4.29,4.29,0,0,0-.21.67,5.68,5.68,0,0,0,.15,3.13,2.84,2.84,0,0,0,2.17,2.07,6.38,6.38,0,0,0,3.9-.95l4.63-2.3A9.67,9.67,0,0,1,400.13,271Z"/></g><g id="Capa_7" data-name="Capa 7"><polygon class="cls-3" points="120.8 472.47 212.21 381.06 206.57 375.42 120.8 472.47"/><polygon class="cls-3" points="105.79 441.38 197.2 349.98 191.56 344.33 105.79 441.38"/><polygon class="cls-3" points="73.76 434.38 165.17 342.98 159.53 337.33 73.76 434.38"/></g><g id="Capa_2-2" data-name="Capa 2"><path class="cls-4" d="M369.75,50.21c-.42.09-12.34-5-21.76-2.3C337.31,48.13,323.54,64,323.54,64l-29.18,28.9a12.62,12.62,0,0,0-3,8.09,12.09,12.09,0,0,0,3.09,7.82l54.06,54.06-10.79,10.79L254.52,90.5,100.58,244.44,205.86,349.72l29.83-29.83a38.74,38.74,0,0,1,11.49-26.51,41.54,41.54,0,0,1,26.51-11.49l117.4-117.4s.17-15.18,11.5-26.51,26.62-11.61,26.62-11.61l24.8-24.8-27-27Zm29.83,51.7-21.25.9a19.71,19.71,0,0,0-8.21,2.53c-3.52,2.22-8.88,8-8.88,8l-19.6,19.54-32.05-32,31.18-31.06s5.12-5.06,10.91-6,12.93,2,12.93,2L414.51,87Z"/><path class="cls-4" d="M236.91,331.21a35.11,35.11,0,0,0,3.89,9.64,45.51,45.51,0,0,0,5.77,7.75l-7.69,7.66s-5.07,5.89-12.48,6.52c-8.56.71-14.19-6.87-14.19-6.87Z"/><path class="cls-4" d="M440.41,127.71a34,34,0,0,1,9.87,3.66,42.62,42.62,0,0,1,7.83,5.69l8.25-8.28s6.32-5.5,7.27-13.22c1.06-8.92-6.59-14.47-6.59-14.47Z"/><path class="cls-4" d="M285,283.1,392.3,175.82A38.08,38.08,0,0,0,402,193.21l-99.54,99.55a43.19,43.19,0,0,0-7.81-5.73A32.43,32.43,0,0,0,285,283.1Z"/><path class="cls-4" d="M443.66,141a25.65,25.65,0,0,0-7.73-2.72l0,0a23.82,23.82,0,0,0-5.34-.51,28.08,28.08,0,0,0-28.2,28.2,24.42,24.42,0,0,0,.51,5.34l0,0a26,26,0,0,0,2.72,7.73,28.11,28.11,0,0,0,5,6.83,27.55,27.55,0,0,0,6.77,5,28.81,28.81,0,0,0,5.06,2.08l0,0a31.07,31.07,0,0,0,5.29,1l0,0a28.3,28.3,0,0,0,30.79-30.78l0,0a32.13,32.13,0,0,0-1-5.28l0,0a28.81,28.81,0,0,0-2.08-5.06,27.6,27.6,0,0,0-5-6.78A28.07,28.07,0,0,0,443.66,141Zm-3.2,34.81a14,14,0,1,1,0-19.82A14,14,0,0,1,440.46,175.85Z"/><path class="cls-4" d="M443.66,141a27.4,27.4,0,0,0-7.73-2.72l0,0a30.86,30.86,0,0,0-5.34-.51,28.29,28.29,0,0,0-28.2,28.2,30.86,30.86,0,0,0,.51,5.34l0,0a27.51,27.51,0,0,0,2.72,7.73,28.11,28.11,0,0,0,5,6.83,27.55,27.55,0,0,0,6.77,5,25.91,25.91,0,0,0,5.06,2.08l0,0a26.16,26.16,0,0,0,5.29,1l0,0a28.23,28.23,0,0,0,30.79-30.78l0,0a26.88,26.88,0,0,0-1-5.28l0,0a25.91,25.91,0,0,0-2.08-5.06,27.6,27.6,0,0,0-5-6.78A28.07,28.07,0,0,0,443.66,141Zm-23.05,15a14,14,0,1,1,0,19.85A14,14,0,0,1,420.61,156Z"/><path class="cls-4" d="M288.3,296.46a26,26,0,0,0-7.73-2.73l0,0a24.42,24.42,0,0,0-5.34-.5A28,28,0,0,0,247,321.39a24.42,24.42,0,0,0,.5,5.34l0,0a26,26,0,0,0,2.73,7.73,27.62,27.62,0,0,0,5,6.83,27.3,27.3,0,0,0,6.77,5,28.81,28.81,0,0,0,5.06,2.08l0,0a32.45,32.45,0,0,0,5.29,1l0,0a28.29,28.29,0,0,0,30.78-30.78l0,0a32.45,32.45,0,0,0-1-5.29l0,0a28.81,28.81,0,0,0-2.08-5.06,27.05,27.05,0,0,0-5-6.77A27.62,27.62,0,0,0,288.3,296.46Zm-3.2,34.8a14,14,0,1,1,0-19.82A14,14,0,0,1,285.1,331.26Z"/><path class="cls-4" d="M288.3,296.46a27.42,27.42,0,0,0-7.73-2.73l0,0a30.85,30.85,0,0,0-5.34-.5A28.25,28.25,0,0,0,247,321.39a30.85,30.85,0,0,0,.5,5.34l0,0a28.17,28.17,0,0,0,14.53,19.54,26.16,26.16,0,0,0,5.06,2.08l0,0a27.12,27.12,0,0,0,5.29,1l0,0a28.23,28.23,0,0,0,30.78-30.78l0,0a27.12,27.12,0,0,0-1-5.29l0,0a26.16,26.16,0,0,0-2.08-5.06,27.05,27.05,0,0,0-5-6.77A27.62,27.62,0,0,0,288.3,296.46Zm-23.05,15a14,14,0,1,1,0,19.85A14,14,0,0,1,265.25,311.41Z"/></g></g></svg>